<svg xmlns="http://www.w3.org/2000/svg" xmlns:xlink="http://www.w3.org/1999/xlink" width="673pt" height="419pt" viewBox="0 0 673 419" version="1.1">
  <g id="surface1">
    <path fill="white" style=" stroke:none;;fill-opacity:1;" d="M 494.28125 118.046875 L 314.144531 118.046875 L 314.144531 157.394531 L 494.003906 157.394531 C 503.078125 157.394531 510.460938 164.402344 510.460938 173.46875 C 510.460938 182.535156 503.078125 189.972656 494.003906 189.972656 L 451.867188 189.972656 L 451.839844 229.304688 L 474.222656 229.304688 L 510.441406 301.277344 L 554.757812 301.277344 L 516.195312 225.027344 C 535.980469 216.4375 549.855469 196.726562 549.855469 173.835938 C 549.855469 143.167969 524.949219 118.203125 494.28125 118.050781 L 494.28125 118.046875 " />
    <path fill="white" style=" stroke:none;fill-opacity:1;" d="M 412.515625 229.292969 L 179.710938 229.292969 L 179.710938 189.984375 L 412.515625 189.984375 L 412.515625 229.292969 " />
    <path fill="white" style=" stroke:none;fill-opacity:1;" d="M 452.289062 301.277344 L 216.121094 301.277344 L 216.121094 261.972656 L 452.289062 261.972656 L 452.289062 301.277344 " />
    <path fill="white" style=" stroke:none;fill-opacity:1;" d="M 274.742188 118.046875 L 117.730469 118.046875 L 117.730469 144.265625 L 117.722656 144.265625 L 117.722656 301.277344 L 157.027344 301.277344 L 157.027344 157.355469 L 274.742188 157.355469 L 274.742188 118.046875 " />
  </g>
</svg>