<?xml version="1.0" standalone="no"?>
<!DOCTYPE svg PUBLIC "-//W3C//DTD SVG 20010904//EN" "//www.w3.org/TR/2001/REC-SVG-20010904/DTD/svg10.dtd">
<svg version="1.0" xmlns="//www.w3.org/2000/svg" width="200.000000pt" height="200.000000pt" viewBox="0 0 200.000000 200.000000" preserveAspectRatio="xMidYMid meet">
  <metadata>
    Created by potrace 1.14, written by Peter Selinger 2001-2017
  </metadata>
  <g transform="translate(0.000000,200.000000) scale(0.100000,-0.100000)" fill="#000000" stroke="none">
    <path d="M0 1000 l0 -1000 1000 0 1000 0 0 1000 0 1000 -1000 0 -1000 0 0
-1000z m971 484 c24 -8 56 -16 72 -16 34 -1 43 -13 50 -66 4 -34 1 -45 -14
-55 -10 -8 -16 -17 -11 -22 4 -5 2 -5 -4 -2 -7 4 -28 0 -48 -8 -47 -20 -75
-19 -128 5 -43 19 -45 22 -51 71 -5 40 -2 57 11 75 9 13 22 22 29 19 7 -2 15
0 18 5 9 14 26 12 76 -6z m-9 -291 c-10 -28 -10 -28 -9 10 0 24 4 34 10 28 6
-6 5 -20 -1 -38z m-279 -78 c-3 -9 -8 -14 -10 -11 -3 3 -2 9 2 15 9 16 15 13
8 -4z m447 -30 c0 -8 -6 -15 -13 -15 -8 0 -14 7 -14 15 0 8 6 15 14 15 7 0 13
-7 13 -15z m-167 -28 c-3 -5 -10 -4 -15 1 -6 6 -7 16 -3 22 6 9 9 9 16 -1 4
-7 5 -17 2 -22z m430 -364 c12 -21 22 -40 22 -43 2 -20 18 -50 26 -50 6 0 7
-4 4 -10 -3 -5 -2 -10 4 -10 6 0 24 -13 41 -30 17 -16 37 -30 45 -30 7 0 17
-5 20 -10 4 -6 10 -8 15 -5 5 3 11 1 15 -5 4 -6 11 -8 16 -5 5 3 6 -1 3 -9 -4
-10 -1 -16 8 -16 7 0 19 -9 26 -21 l13 -21 -38 20 c-21 11 -45 23 -53 26 -15
6 -27 13 -85 50 l-30 20 19 -22 c10 -12 27 -24 37 -27 21 -7 24 -32 8 -68 -10
-21 -17 -24 -53 -23 -22 2 -50 -2 -61 -7 -60 -30 -57 -30 -45 -7 11 20 10 21
-10 10 -22 -12 -22 -11 1 22 49 70 71 89 88 75 12 -9 12 -7 -1 9 -10 11 -14
25 -10 30 4 6 -19 -17 -52 -50 -32 -34 -76 -84 -97 -113 -21 -28 -42 -54 -47
-57 -11 -7 -166 163 -157 172 21 22 291 241 298 241 4 1 18 -16 30 -36z m-567
-166 c-1 -26 -5 -33 -17 -30 -15 4 -15 8 -2 34 8 16 16 29 17 29 1 0 2 -15 2
-33z m208 -68 c-19 -21 -19 -21 1 -19 37 4 55 0 53 -12 -2 -7 4 -12 12 -10 25
6 -16 -33 -58 -54 -20 -10 -40 -23 -44 -29 -5 -6 -8 -4 -8 5 0 13 -2 13 -11 0
-9 -12 -9 -11 -3 5 4 11 9 36 11 55 3 22 15 43 31 57 34 29 41 29 16 2z m-91
-144 c-3 -9 -8 -14 -10 -11 -3 3 -2 9 2 15 9 16 15 13 8 -4z m77 -20 c0 -14
-40 -43 -46 -34 -3 6 2 17 12 24 19 15 34 19 34 10z" />
  </g>
</svg>