<?xml version="1.0" encoding="utf-8"?>
<svg viewBox="0 0 500 500" xmlns="http://www.w3.org/2000/svg" xmlns:bx="https://boxy-svg.com">
    <path
        d="M 168.321 312.292 L 168.507 312.292 L 168.288 312.468 Z M 331.679 312.292 L 358.373 453.295 L 141.627 453.295 L 167.804 315.023 L 182.269 330.401 L 169.847 312.292 Z"
        style="stroke-width: 0px; stroke: rgb(0, 0, 0);" />
    <path d="M -250 -691.805 L -141.627 -453.088 L -358.373 -453.088 L -250 -691.805 Z"
        style="stroke-width: 0px; stroke: rgb(0, 0, 0);" transform="matrix(-1, 0, 0, -1, 0, 0)"
        bx:shape="triangle -358.373 -691.805 216.746 238.717 0.5 0 1@1c2c8f1b" />
    <path d="M 250 287.21 L 331.5 312.359 L 168.5 312.359 L 250 287.21 Z"
        style="stroke: rgb(0, 0, 0); stroke-width: 0px;"
        bx:shape="triangle 168.5 287.21 163 25.149 0.5 0 1@a3005358" />
    <rect x="244.717" y="225" width="112.421" height="111.157"
        style="stroke: rgb(0, 0, 0); stroke-linejoin: round; stroke-width: 0px; transform-origin: 300.928px 280.578px;"
        transform="matrix(0.573543012142, 0.819176018238, -0.649910092354, 0.815299928188, -50.927486271061, -7.966753388258)" />
    <path
        d="M 219.665 262.322 L 247.165 262.322 L 247.165 272.731 L 219.665 272.731 Z M 280.335 262.322 L 280.335 272.731 L 252.835 272.731 L 252.835 262.322 Z"
        style="stroke: rgb(0, 0, 0); stroke-width: 0px; fill: rgb(255, 255, 255);" />
</svg>