<svg id="edFUtgP4So51" xmlns="http://www.w3.org/2000/svg" xmlns:xlink="http://www.w3.org/1999/xlink" viewBox="0 0 300 300" shape-rendering="geometricPrecision" text-rendering="geometricPrecision"><polygon points="0,-109.977732 13.576305,-81.358334 35.709711,-104.018835 39.257711,-72.541896 67.549721,-86.787883 60.684935,-55.864418 92.06967,-60.152118 75.536005,-33.133164 106.612442,-26.997937 82.201576,-6.811417 109.602102,9.081889 79.959332,20.248453 100.714673,44.177552 69.052253,45.114088 80.913247,74.485891 50.662291,65.090912 52.343615,96.722528 26.782283,78.014126 18.10174,108.477779 0,82.483299 -18.10174,108.477779 -26.782283,78.014126 -52.343615,96.722528 -50.662291,65.090912 -80.913247,74.485891 -69.052253,45.114088 -100.714673,44.177552 -79.959332,20.248453 -109.602102,9.081889 -82.201576,-6.811417 -106.612442,-26.997937 -75.536005,-33.133164 -92.06967,-60.152118 -60.684935,-55.864418 -67.549721,-86.787883 -39.257711,-72.541896 -35.709711,-104.018835 -13.576305,-81.358334 0,-109.977732" transform="translate(150 150.749977)" fill="#dcd821" stroke="#eca410" stroke-width="0"/><ellipse rx="63.227848" ry="63.227848" transform="translate(150 150)" fill="#e1ac3e" stroke-width="0"/></svg>
